# xmcd
#
# Track frame offsets:
# 150
# 13229
# 26653
# 38778
# 48906
# 62567
# 73360
# 86882
# 99218
# 114101
# 126210
# 139354
# 152580
# 165939
# 179159
# 190761
# 204520
# 217562
# 229142
# 243941
#
# Disc length: 3393 seconds
#
#
# Revision: 1
# Processed by: cddbd v1.5.2PL0 Copyright (c) Steve Scherf et al.
# Submitted via: HACP 1.20
#
DISCID=0e0d3f14
DTITLE=Various Artist - Go Go Power
DYEAR=1900
DGENRE=
TTITLE0=Sugar Pie DeSanto - Go Go Power
TTITLE1=Marlena Shaw - Let's Go Wade in the Water
TTITLE2=Jackie Ross - Jerk and Twine
TTITLE3=Johnny Nash - Love Ain't Nothing
TTITLE4=Billy Stewart - Secret Love
TTITLE5=Sugar Pie DeSanto and Etta James - In the Basement
TTITLE6=Etta James - Mellow Fellow
TTITLE7=Little Milton - Grits Ain't Groceries
TTITLE8=Tony Clarke - Ain't Love Good, Ain't Love Proud
TTITLE9=Terry Callier - Look at Me Now
TTITLE10=Bobby McClure - Peak of Love
TTITLE11=Billy Stewart - Everyday I Have the Blues
TTITLE12=Sugar Pie DeSanto and Etta James - Do I Make Myself Clear
TTITLE13=Etta James - Seven Day Fool
TTITLE14=The Knight Brothers - That'll Get It
TTITLE15=Sugar Pie DeSanto - I Don't Wanna Fuss
TTITLE16=Johnny Nash - Strange Feeling
TTITLE17=Jackie Ross - Take Me for a Little While
TTITLE18=James Phelps - Love Is a 5 Letter Word
TTITLE19=Little Milton - Ain't No Big Deal
EXTD=
EXTT0=
EXTT1=
EXTT2=
EXTT3=
EXTT4=
EXTT5=
EXTT6=
EXTT7=
EXTT8=
EXTT9=
EXTT10=
EXTT11=
EXTT12=
EXTT13=
EXTT14=
EXTT15=
EXTT16=
EXTT17=
EXTT18=
EXTT19=
PLAYORDER=
